:SAMPLES-PER-SECOND 30
:FULLY-SPECIFIED
:DEGREES
358
root  -69.0399 41.6184 -1.36214 130.814 87.5328 130.428
RightUpLeg  3.70665 -8.80479 -4.87553
RightLeg  4.62261 -15.1967 3.67481
RightFoot  -5.98571 0.0307679 -1.5165
RightToes  0.000482159 0.542163 -0.142577
Spine  4.05014 -0.438269 -2.39363
Spine1  -1.62062 -0.783613 2.47143
HEad  3.84506 1.31774 0.441935
LeftShoulder1  0.865847 -2.6373 -6.35658
LeftArm  -26.3114 16.3946 -6.14688
LeftForeArm  22.0714 -12.5784 0.39678
LeftHand  -0.25398 0.0180481 5.50724
RightShoulder  0.252581 -1.54735 5.08653
RightArm  -22.4025 -7.6319 4.29478
RightForeArm  -3.45768 11.5792 3.85064
RightHand  -2.43094 7.68932 -21.7516
LeftUpLeg  2.59579 3.48185 1.12842
LeftLeg  1.04436 7.91318 -3.3891
LeftFoot  -2.19806 -0.078407 1.16337
LeftToes  1.06246e-005 4.65855e-005 -8.18503e-006
359
root  -69.0483 41.6188 -1.39649 126.646 87.6529 126.297
RightUpLeg  3.68255 -8.8798 -4.98798
RightLeg  4.69405 -14.8989 3.70003
RightFoot  -5.97695 0.0334638 -1.5394
RightToes  0.000482159 0.542163 -0.142577
Spine  4.10089 -0.471223 -2.6398
Spine1  -1.41129 -0.868139 2.71212
HEad  3.44763 1.48898 0.607075
LeftShoulder1  0.864042 -2.49378 -6.69531
LeftArm  -24.1782 16.1995 -6.41749
LeftForeArm  22.4759 -10.8779 0.323331
LeftHand  -0.25398 0.0180481 5.50724
RightShoulder  0.2751 -1.43714 5.53996
RightArm  -21.8691 -7.33873 4.78228
RightForeArm  -2.01807 11.0226 3.82838
RightHand  -2.25644 7.16928 -21.0427
LeftUpLeg  2.67522 3.49626 1.07628
LeftLeg  0.988725 8.12109 -3.4406
LeftFoot  -2.1874 -0.0832403 1.2385
LeftToes  1.06246e-005 4.65855e-005 -8.18503e-006
360
root  -69.0567 41.6194 -1.43896 121.558 87.8164 121.136
RightUpLeg  3.53168 -8.90073 -5.04048
RightLeg  4.74989 -14.6184 3.70735
RightFoot  -5.94303 0.0327882 -1.51677
RightToes  0.000482159 0.542163 -0.142577
Spine  4.10914 -0.362501 -2.49925
Spine1  -1.31354 -0.731643 2.54025
HEad  3.10919 1.50745 1.00199
LeftShoulder1  0.906411 -2.59565 -7.20242
LeftArm  -22.7997 15.9281 -6.63175
LeftForeArm  21.99 -9.30914 0.178977
LeftHand  -0.25398 0.0180481 5.50724
RightShoulder  0.294995 -1.36398 6.07243
RightArm  -21.4793 -7.53892 5.19509
RightForeArm  -0.196726 10.4741 3.7264
RightHand  -1.91385 6.19937 -19.374
LeftUpLeg  2.61275 3.47396 1.01055
LeftLeg  0.961231 8.42531 -3.44501
LeftFoot  -2.17037 -0.0884474 1.31945
LeftToes  1.06246e-005 4.65855e-005 -8.18503e-006
361
root  -69.056 41.6213 -1.47095 117.592 87.9244 116.971
RightUpLeg  3.27888 -8.86016 -5.02668
RightLeg  4.76384 -14.4791 3.67748
RightFoot  -5.90558 0.0279104 -1.43394
RightToes  0.000482159 0.542163 -0.142577
Spine  4.0002 -0.231336 -2.29297
Spine1  -1.37317 -0.541807 2.2389
HEad  2.90525 1.59199 1.5321
LeftShoulder1  0.957497 -2.79594 -7.58711
LeftArm  -22.1256 15.8412 -6.88031
LeftForeArm  21.1168 -8.07604 0.125416
LeftHand  -0.25398 0.0180481 5.50724
RightShoulder  0.323494 -1.26541 6.81956
RightArm  -21.287 -7.97176 5.2877
RightForeArm  1.219 10.0315 3.60372
RightHand  -1.50709 4.92767 -17.2004
LeftUpLeg  2.41956 3.41344 0.939268
LeftLeg  0.938186 8.68112 -3.42308
LeftFoot  -2.15311 -0.0906593 1.35383
LeftToes  1.06246e-005 4.65855e-005 -8.18503e-006
362
root  -69.0458 41.6238 -1.48638 113.569 87.9783 112.667
RightUpLeg  2.94791 -8.79956 -4.99441
RightLeg  4.78442 -14.3916 3.61671
RightFoot  -5.87832 0.0243147 -1.37442
RightToes  0.000482159 0.542163 -0.142577
Spine  3.85003 -0.126689 -2.35318
Spine1  -1.57054 -0.422744 2.20268
HEad  2.64767 1.84442 1.91517
LeftShoulder1  0.949844 -2.72126 -7.65016
LeftArm  -21.812 15.9398 -7.34441
LeftForeArm  20.7863 -7.24519 0.148993
LeftHand  -0.25398 0.0180481 5.50724
RightShoulder  0.357141 -1.14641 7.60507
RightArm  -21.1734 -8.3586 5.13375
RightForeArm  1.72228 9.78575 3.5448
RightHand  -1.25237 4.03688 -15.6814
LeftUpLeg  2.1931 3.35169 0.870193
LeftLeg  0.83872 8.90569 -3.43768
LeftFoot  -2.1203 -0.0912706 1.36334
LeftToes  1.06246e-005 4.65855e-005 -8.18503e-006
363
root  -69.0298 41.627 -1.49895 107.949 88.0428 106.803
RightUpLeg  2.67405 -8.75248 -4.97048
RightLeg  4.77621 -14.2446 3.58526
RightFoot  -5.82997 0.0252394 -1.38677
RightToes  0.000482159 0.542163 -0.142577
Spine  3.82801 0.0203369 -2.61859
Spine1  -1.89967 -0.323002 2.51223
HEad  2.15183 2.01017 1.95536
LeftShoulder1  0.91746 -2.50611 -7.65501
LeftArm  -21.379 16.0568 -7.74736
LeftForeArm  20.9271 -6.53778 0.125556
LeftHand  -0.25398 0.0180481 5.50724
RightShoulder  0.382076 -1.04522 8.04411
RightArm  -20.9983 -8.76024 4.94904
RightForeArm  1.57372 9.72746 3.55428
RightHand  -1.19359 3.79597 -15.3262
LeftUpLeg  2.04376 3.32083 0.825087
LeftLeg  0.688712 9.15311 -3.47695
LeftFoot  -2.07657 -0.0927045 1.38563
LeftToes  1.06246e-005 4.65855e-005 -8.18503e-006
